<svg width="8" height="16" viewBox="0 0 8 16" fill="none" xmlns="http://www.w3.org/2000/svg">
<path fill-rule="evenodd" clip-rule="evenodd" d="M7.69943 0.00312102L5.78034 0C3.62457 0 2.23101 1.54574 2.23101 3.93768V5.75349H0.301342C0.135277 5.75349 0 5.89893 0 6.07933V8.71034C0 8.88991 0.135277 9.03618 0.301342 9.03618H2.23101V15.6742C2.23101 15.8537 2.36629 16 2.53312 16H5.04969C5.21653 16 5.35181 15.8537 5.35181 15.6742V9.03618H7.60764C7.77447 9.03618 7.90917 8.88991 7.90917 8.71034L7.91052 6.07933C7.91052 5.99319 7.87819 5.91037 7.82181 5.84858C7.76543 5.78761 7.68884 5.75349 7.60841 5.75349H5.35181V4.21421C5.35181 3.47452 5.51499 3.09896 6.40573 3.09896L7.69866 3.09813C7.86549 3.09813 8 2.95186 8 2.7723V0.329996C8 0.149393 7.86549 0.00395329 7.69943 0.00312102Z" fill="white"/>
</svg>
