<svg width="19" height="12" viewBox="0 0 19 12" fill="none" xmlns="http://www.w3.org/2000/svg">
<mask id="mask0" mask-type="alpha" maskUnits="userSpaceOnUse" x="0" y="0" width="12" height="12">
<path fill-rule="evenodd" clip-rule="evenodd" d="M0.00244141 0.0322266V11.9974H11.9654V0.0322266H0.00244141Z" fill="white"/>
</mask>
<g mask="url(#mask0)">
<path fill-rule="evenodd" clip-rule="evenodd" d="M6.56231 7.25054H9.48452C8.97158 8.70074 7.58235 9.7405 5.95594 9.7285C3.98252 9.71393 2.35076 8.13523 2.27415 6.16323C2.19203 4.04939 3.8879 2.30352 5.98382 2.30352C6.94215 2.30352 7.81668 2.66866 8.47599 3.26699C8.63215 3.40874 8.86986 3.40964 9.02345 3.26507L10.0968 2.2549C10.2646 2.0969 10.2652 1.83009 10.0979 1.67156C9.05227 0.680986 7.64966 0.0635576 6.10292 0.0333535C2.8039 -0.0310546 0.0231284 2.6738 0.000148855 5.97339C-0.0230348 9.29776 2.66484 11.9999 5.98382 11.9999C9.17562 11.9999 11.783 9.50074 11.9577 6.35262C11.9624 6.31315 11.9654 4.97923 11.9654 4.97923H6.56231C6.34084 4.97923 6.16133 5.15874 6.16133 5.38021V6.84956C6.16133 7.07103 6.34088 7.25054 6.56231 7.25054Z" fill="#FBFCFD"/>
</g>
<path fill-rule="evenodd" clip-rule="evenodd" d="M17.0452 4.95476V3.38437C17.0452 3.17207 16.8732 3 16.6609 3H15.3391C15.1268 3 14.9548 3.17207 14.9548 3.38437V4.95476H13.3844C13.1721 4.95476 13 5.12683 13 5.33913V6.66087C13 6.87317 13.1721 7.04524 13.3844 7.04524H14.9548V8.61563C14.9548 8.82793 15.1268 9 15.3391 9H16.6609C16.8732 9 17.0452 8.82793 17.0452 8.61563V7.04524H18.6156C18.8279 7.04524 19 6.87317 19 6.66087V5.33913C19 5.12683 18.8279 4.95476 18.6156 4.95476H17.0452Z" fill="#FBFCFD"/>
</svg>
