<svg width="16" height="13" viewBox="0 0 16 13" fill="none" xmlns="http://www.w3.org/2000/svg">
<path fill-rule="evenodd" clip-rule="evenodd" d="M16 1.5378C15.4138 1.79785 14.7788 1.97788 14.1151 2.05665C14.7938 1.65032 15.3113 1.00644 15.56 0.238796C14.9251 0.615118 14.2226 0.888921 13.4702 1.0352C12.8752 0.400077 12.0203 0 11.0779 0C9.26678 0 7.79689 1.47028 7.79689 3.28188C7.79689 3.54068 7.82689 3.78948 7.88063 4.02952C5.15085 3.892 2.73479 2.588 1.11366 0.600115C0.829935 1.08396 0.668698 1.65032 0.668698 2.25168C0.668698 3.3894 1.2499 4.39585 2.12858 4.98096C1.59113 4.96721 1.08867 4.81593 0.64495 4.57088V4.61089C0.64495 6.20244 1.77736 7.5302 3.27599 7.83401C3.00227 7.90652 2.70979 7.94528 2.41231 7.94528C2.20233 7.94528 1.99734 7.92652 1.79236 7.88777C2.21233 9.19177 3.42223 10.1382 4.85837 10.1682C3.73471 11.0471 2.31857 11.5697 0.781189 11.5697C0.51746 11.5697 0.25873 11.5547 0 11.526C1.45489 12.4586 3.1785 13 5.03336 13C11.0679 13 14.3689 7.99904 14.3689 3.6632L14.3589 3.23812C15.0038 2.77428 15.56 2.19792 16 1.5378Z" fill="#FBFCFD"/>
</svg>
