<svg width="18" height="10" viewBox="0 0 18 10" fill="none" xmlns="http://www.w3.org/2000/svg">
<path fill-rule="evenodd" clip-rule="evenodd" d="M15.4914 6.35837C16.0886 6.93075 16.7187 7.4691 17.2543 8.09933C17.4909 8.3791 17.715 8.66801 17.8862 8.99285C18.129 9.45463 17.909 9.96294 17.4871 9.99073L14.8651 9.98935C14.1885 10.0446 13.6491 9.77729 13.1954 9.32342C12.8324 8.96026 12.496 8.57388 12.1471 8.19853C12.0039 8.04519 11.8541 7.90084 11.675 7.7869C11.3172 7.55866 11.0065 7.6284 10.8018 7.99497C10.5936 8.36777 10.5462 8.7805 10.5257 9.19613C10.4977 9.80219 10.3111 9.96156 9.69089 9.98935C8.36511 10.0508 7.10727 9.85379 5.93858 9.19751C4.90828 8.61866 4.10922 7.80163 3.41388 6.8769C2.05979 5.07563 1.02283 3.09656 0.09093 1.06226C-0.118944 0.60381 0.0346727 0.357786 0.549859 0.349005C1.40518 0.332821 2.26049 0.333982 3.11699 0.347844C3.46467 0.352924 3.6948 0.548582 3.82912 0.87117C4.29204 1.98836 4.85831 3.0512 5.56925 4.0366C5.75842 4.29881 5.95159 4.56109 6.22652 4.74593C6.53058 4.9503 6.76189 4.88251 6.90508 4.54998C6.99579 4.33909 7.03563 4.112 7.05611 3.88608C7.12368 3.10904 7.13262 2.33338 7.01397 1.55917C6.94094 1.07583 6.66372 0.763181 6.17248 0.671593C5.9218 0.625074 5.95906 0.533559 6.08067 0.392912C6.2912 0.150807 6.48955 0 6.8846 0H9.84828C10.3149 0.0904263 10.4186 0.296244 10.4824 0.75694L10.485 3.9887C10.4798 4.1673 10.5757 4.69658 10.9031 4.8148C11.165 4.8987 11.3377 4.69288 11.4948 4.52988C12.2044 3.79058 12.7108 2.91679 13.1633 2.01224C13.364 1.61418 13.5367 1.20116 13.7039 0.788364C13.8281 0.481959 14.0225 0.33137 14.3739 0.337901L17.2263 0.340441C17.3107 0.340441 17.3964 0.341603 17.4782 0.355464C17.959 0.43602 18.0907 0.639008 17.9422 1.09963C17.7083 1.82253 17.2532 2.42496 16.8082 3.03023C16.3326 3.67627 15.8238 4.30026 15.3522 4.9503C14.9188 5.54395 14.9531 5.84302 15.4914 6.35837Z" fill="#FBFCFD"/>
</svg>
